<svg width="16" height="16" viewBox="0 0 16 16" fill="none" xmlns="http://www.w3.org/2000/svg">
<path d="M14.2115 4.76125L13.8824 4.19019C13.6336 3.7583 13.5092 3.54236 13.2974 3.45625C13.0857 3.37014 12.8462 3.43809 12.3674 3.57398L11.5539 3.80311C11.2482 3.87362 10.9274 3.83362 10.6482 3.69019L10.4236 3.56061C10.1842 3.40728 10.0001 3.18121 9.89817 2.91549L9.67557 2.25057C9.52917 1.81055 9.45597 1.59055 9.2817 1.46471C9.1075 1.33887 8.87604 1.33887 8.4131 1.33887H7.6699C7.20704 1.33887 6.97557 1.33887 6.8013 1.46471C6.62707 1.59055 6.55388 1.81055 6.4075 2.25057L6.18486 2.91549C6.08294 3.18121 5.8988 3.40728 5.65942 3.56061L5.43483 3.69019C5.15566 3.83362 4.8349 3.87362 4.52916 3.80311L3.71567 3.57398C3.23678 3.43809 2.99734 3.37014 2.78562 3.45625C2.5739 3.54236 2.44947 3.7583 2.2006 4.19019L1.87155 4.76125C1.63828 5.16609 1.52164 5.36851 1.54428 5.58399C1.56691 5.79947 1.72306 5.97311 2.03534 6.32041L2.7227 7.08886C2.8907 7.30153 3.00998 7.67219 3.00998 8.00546C3.00998 8.33886 2.89074 8.70939 2.72272 8.92213L2.03534 9.69059C1.72306 10.0379 1.56692 10.2115 1.54428 10.4271C1.52164 10.6425 1.63828 10.8449 1.87155 11.2497L2.2006 11.8208C2.44946 12.2527 2.5739 12.4687 2.78562 12.5547C2.99734 12.6409 3.23678 12.5729 3.71568 12.437L4.52913 12.2079C4.83492 12.1373 5.15575 12.1774 5.43495 12.3209L5.6595 12.4505C5.89884 12.6038 6.08293 12.8298 6.18484 13.0955L6.4075 13.7605C6.55388 14.2005 6.62707 14.4205 6.8013 14.5464C6.97557 14.6722 7.20704 14.6722 7.6699 14.6722H8.4131C8.87604 14.6722 9.1075 14.6722 9.2817 14.5464C9.45597 14.4205 9.52917 14.2005 9.67557 13.7605L9.89824 13.0955C10.0001 12.8298 10.1842 12.6038 10.4236 12.4505L10.6481 12.3209C10.9273 12.1774 11.2481 12.1373 11.5539 12.2079L12.3674 12.437C12.8462 12.5729 13.0857 12.6409 13.2974 12.5547C13.5092 12.4687 13.6336 12.2527 13.8824 11.8208L14.2115 11.2497C14.4448 10.8449 14.5614 10.6425 14.5388 10.4271C14.5161 10.2115 14.36 10.0379 14.0477 9.69059L13.3603 8.92213C13.1923 8.70939 13.073 8.33886 13.073 8.00546C13.073 7.67219 13.1924 7.30153 13.3603 7.08886L14.0477 6.32041C14.36 5.97311 14.5161 5.79947 14.5388 5.58399C14.5614 5.36851 14.4448 5.16609 14.2115 4.76125Z" stroke="#717171" stroke-width="1.25" stroke-linecap="round"/>
<path d="M5.6665 10.6667C6.13226 9.86153 7.00277 9.3198 7.99984 9.3198C8.9969 9.3198 9.86744 9.86153 10.3332 10.6667M9.33317 6.33333C9.33317 7.06973 8.73624 7.66667 7.99984 7.66667C7.2635 7.66667 6.6665 7.06973 6.6665 6.33333C6.6665 5.59695 7.2635 5 7.99984 5C8.73624 5 9.33317 5.59695 9.33317 6.33333Z" stroke="#717171" stroke-width="1.25" stroke-linecap="round"/>
</svg>
