<svg width="20" height="20" viewBox="0 0 20 20" fill="none" xmlns="http://www.w3.org/2000/svg">
<path d="M5 14.9788C5.10725 16.0691 5.34963 16.803 5.89742 17.3507C6.87997 18.3333 8.46133 18.3333 11.6241 18.3333C14.7868 18.3333 16.3682 18.3333 17.3507 17.3507C18.3333 16.3682 18.3333 14.7868 18.3333 11.6241C18.3333 8.46133 18.3333 6.87997 17.3507 5.89742C16.803 5.34963 16.0691 5.10725 14.9788 5" stroke="#A0A0A0" stroke-width="1.5"/>
<path d="M1.6665 8.33335C1.6665 5.19065 1.6665 3.61931 2.64281 2.643C3.61913 1.66669 5.19047 1.66669 8.33317 1.66669C11.4758 1.66669 13.0473 1.66669 14.0235 2.643C14.9998 3.61931 14.9998 5.19065 14.9998 8.33335C14.9998 11.476 14.9998 13.0474 14.0235 14.0237C13.0473 15 11.4758 15 8.33317 15C5.19047 15 3.61913 15 2.64281 14.0237C1.6665 13.0474 1.6665 11.476 1.6665 8.33335Z" stroke="#A0A0A0" stroke-width="1.5"/>
<path d="M4.1665 15C7.01701 11.0406 10.2204 5.78959 14.9998 9.72784" stroke="#A0A0A0" stroke-width="1.5"/>
</svg>
