<svg width="40" height="40" viewBox="0 0 40 40" fill="none" xmlns="http://www.w3.org/2000/svg">
<rect width="40" height="40" rx="8" fill="#2E2E2E"/>
<path d="M22.8879 10.4531C22.8879 12.3602 21.3711 13.9063 19.5 13.9063C17.6289 13.9063 16.1121 12.3602 16.1121 10.4531C16.1121 8.54602 17.6289 7 19.5 7C21.3711 7 22.8879 8.54602 22.8879 10.4531Z" fill="#29FFBF"/>
<path d="M29.3055 18.217C27.6851 19.1706 25.6131 18.6047 24.6776 16.9531C23.7421 15.3015 24.2973 13.1896 25.9176 12.236C27.538 11.2825 29.61 11.8484 30.5455 13.5C31.4811 15.1516 30.9259 17.2635 29.3055 18.217Z" fill="#29FFBF"/>
<path d="M8.45445 26.5C9.38998 28.1516 11.462 28.7175 13.0824 27.7639C14.7027 26.8104 15.2579 24.6985 14.3224 23.0469C13.3869 21.3953 11.3149 20.8294 9.6945 21.7829C8.07411 22.7365 7.51892 24.8484 8.45445 26.5Z" fill="#29FFBF"/>
<path d="M29.3055 21.783C27.6851 20.8295 25.6131 21.3954 24.6776 23.047C23.7421 24.6986 24.2973 26.8105 25.9176 27.764C27.538 28.7176 29.61 28.1517 30.5455 26.5001C31.4811 24.8485 30.9259 22.7366 29.3055 21.783Z" fill="#29FFBF"/>
<path d="M13.0824 12.2361C11.462 11.2825 9.38999 11.8484 8.45446 13.5C7.51893 15.1516 8.07411 17.2635 9.6945 18.2171C10.7335 18.8285 11.9581 18.8152 12.9498 18.2916C13.6388 17.9278 14.4806 17.7287 15.1526 18.1241L15.3829 18.2597C15.8974 18.5624 16.1121 19.1914 16.1121 19.7968C16.1121 20.9739 16.69 22.0135 17.5723 22.6368C18.1798 23.0661 18.7177 23.6897 18.7177 24.4431V24.9006C18.7177 25.6541 18.1798 26.2776 17.5723 26.7069C16.69 27.3302 16.1121 28.3698 16.1121 29.5469C16.1121 31.454 17.6289 33 19.5 33C21.3711 33 22.8879 31.454 22.8879 29.5469C22.8879 28.3766 22.3168 27.3424 21.4431 26.7178C20.8424 26.2883 20.312 25.6678 20.312 24.9198V24.4239C20.312 23.6759 20.8424 23.0554 21.4431 22.6259C22.3168 22.0013 22.8879 20.9671 22.8879 19.7968C22.8879 17.8897 21.3711 16.3437 19.5 16.3437C18.9946 16.3437 18.515 16.4565 18.0842 16.6588C17.4231 16.9692 16.6382 17.122 16.0078 16.751L15.71 16.5758C15.1065 16.2206 14.8377 15.497 14.7496 14.7925C14.6204 13.7591 14.0357 12.7971 13.0824 12.2361Z" fill="#29FFBF"/>
</svg>
