<svg width="24" height="25" viewBox="0 0 24 25" fill="none" xmlns="http://www.w3.org/2000/svg">
<path d="M13.5 5C13.5 5.82843 12.8284 6.5 12 6.5C11.1716 6.5 10.5 5.82843 10.5 5C10.5 4.17157 12 2.5 12 2.5C12 2.5 13.5 4.17157 13.5 5Z" stroke="#A0A0A0" stroke-width="1.5" stroke-linejoin="round"/>
<path d="M12 6.5V9.5" stroke="#A0A0A0" stroke-width="1.5" stroke-linecap="round" stroke-linejoin="round"/>
<path d="M17.6667 14.5C19.2315 14.5 20.5 13.3807 20.5 12C20.5 10.6193 19.2315 9.5 17.6667 9.5H6.33333C4.76853 9.5 3.5 10.6193 3.5 12C3.5 13.3807 4.76853 14.5 6.33333 14.5C7.70408 14.5 8.90415 13.6411 9.16667 12.5C9.42919 13.6411 10.6293 14.5 12 14.5C13.3707 14.5 14.5708 13.6411 14.8333 12.5C15.0959 13.6411 16.2959 14.5 17.6667 14.5Z" stroke="#A0A0A0" stroke-width="1.5" stroke-linejoin="round"/>
<path d="M5 14.5L5.52089 17.0796C6.04532 19.6768 6.30754 20.9754 7.19608 21.7377C8.08462 22.5 9.33608 22.5 11.839 22.5H12.161C14.6639 22.5 15.9154 22.5 16.8039 21.7377C17.6925 20.9754 17.9547 19.6768 18.4791 17.0796L19 14.5" stroke="#A0A0A0" stroke-width="1.5" stroke-linecap="round" stroke-linejoin="round"/>
</svg>
