<svg width="16" height="16" viewBox="0 0 16 16" fill="none" xmlns="http://www.w3.org/2000/svg">
<path d="M12.0002 13.1032C11.2494 13.572 10.38 13.8653 9.44723 13.9273C8.49583 13.9906 7.50256 13.9905 6.55309 13.9273C6.22613 13.9056 5.86976 13.8276 5.56283 13.7012C5.22134 13.5605 5.05056 13.4902 4.96379 13.5009C4.87701 13.5115 4.75109 13.6044 4.49928 13.7901C4.05528 14.1175 3.49594 14.3527 2.66645 14.3325C2.247 14.3223 2.03728 14.3171 1.94339 14.1571C1.8495 13.997 1.96643 13.7754 2.2003 13.3322C2.52465 12.7175 2.73017 12.0139 2.41877 11.4501C1.88245 10.6447 1.42689 9.69099 1.36032 8.66093C1.32455 8.10746 1.32455 7.53426 1.36032 6.98079C1.44098 5.73273 1.91863 4.56274 2.66683 3.66699" stroke="#717171" stroke-linecap="round" stroke-linejoin="round"/>
<path d="M4.3335 2.34615C5.00396 1.98964 5.75532 1.76741 6.5531 1.71437C7.50256 1.65127 8.49583 1.65113 9.44723 1.71437C12.2359 1.89975 14.4572 4.15258 14.64 6.98079C14.6758 7.53426 14.6758 8.10746 14.64 8.66093C14.5674 9.78506 14.1726 10.8183 13.5482 11.667" stroke="#717171" stroke-linecap="round" stroke-linejoin="round"/>
<path d="M1.3335 2L14.6668 15.3333" stroke="#717171" stroke-linecap="round"/>
</svg>
