<svg width="20" height="20" viewBox="0 0 20 20" fill="none" xmlns="http://www.w3.org/2000/svg">
<path d="M15 1.66667V3.33333M5 1.66667V3.33333" stroke="#717171" stroke-width="1.5" stroke-linecap="round" stroke-linejoin="round"/>
<path d="M9.99627 10.8333H10.0038M9.99627 14.1667H10.0038M13.3259 10.8333H13.3334M6.66669 10.8333H6.67416M6.66669 14.1667H6.67416" stroke="#717171" stroke-width="2" stroke-linecap="round" stroke-linejoin="round"/>
<path d="M2.91669 6.66667H17.0834" stroke="#717171" stroke-width="1.5" stroke-linecap="round" stroke-linejoin="round"/>
<path d="M2.08331 10.2027C2.08331 6.57162 2.08331 4.75607 3.12675 3.62803C4.17018 2.5 5.84955 2.5 9.20831 2.5H10.7916C14.1504 2.5 15.8298 2.5 16.8732 3.62803C17.9166 4.75607 17.9166 6.57162 17.9166 10.2027V10.6307C17.9166 14.2617 17.9166 16.0773 16.8732 17.2053C15.8298 18.3333 14.1504 18.3333 10.7916 18.3333H9.20831C5.84955 18.3333 4.17018 18.3333 3.12675 17.2053C2.08331 16.0773 2.08331 14.2617 2.08331 10.6307V10.2027Z" stroke="#717171" stroke-width="1.5" stroke-linecap="round" stroke-linejoin="round"/>
<path d="M2.5 6.66667H17.5" stroke="#717171" stroke-width="1.5" stroke-linecap="round" stroke-linejoin="round"/>
</svg>
