<svg width="24" height="25" viewBox="0 0 24 25" fill="none" xmlns="http://www.w3.org/2000/svg">
<path d="M6.09881 20C4.7987 19.8721 3.82475 19.4816 3.17157 18.8284C2 17.6569 2 15.7712 2 12V11.5C2 7.72876 2 5.84315 3.17157 4.67157C4.34315 3.5 6.22876 3.5 10 3.5H11.5M6.5 18.5C6.29454 19.5019 5.37769 21.6665 6.31569 22.3651C6.806 22.7218 7.58729 22.3408 9.14987 21.5789C10.2465 21.0441 11.3562 20.4309 12.5546 20.155C12.9931 20.0551 13.4395 20.0125 14 20C17.7712 20 19.6569 20 20.8284 18.8284C21.947 17.7098 21.9976 15.9403 21.9999 12.5" stroke="#A0A0A0" stroke-width="1.5" stroke-linecap="round"/>
<path d="M8 14.5H14M8 9.5H11" stroke="#A0A0A0" stroke-width="1.5" stroke-linecap="round" stroke-linejoin="round"/>
<path d="M15.2 3.7L20.8 9.3M22 6.5C22 4.29086 20.2091 2.5 18 2.5C15.7909 2.5 14 4.29086 14 6.5C14 8.70914 15.7909 10.5 18 10.5C20.2091 10.5 22 8.70914 22 6.5Z" stroke="#A0A0A0" stroke-width="1.5" stroke-linecap="round"/>
</svg>
