<svg width="20" height="20" viewBox="0 0 20 20" fill="none" xmlns="http://www.w3.org/2000/svg">
<path d="M5.08233 15.8333C3.99891 15.7268 3.18728 15.4013 2.64296 14.857C1.66666 13.8808 1.66666 12.3093 1.66666 9.16667V8.75C1.66666 5.6073 1.66666 4.03596 2.64296 3.05964C3.61928 2.08334 5.19062 2.08334 8.33332 2.08334H11.6667C14.8093 2.08334 16.3807 2.08334 17.357 3.05964C18.3333 4.03596 18.3333 5.6073 18.3333 8.75V9.16667C18.3333 12.3093 18.3333 13.8808 17.357 14.857C16.3807 15.8333 14.8093 15.8333 11.6667 15.8333C11.1996 15.8438 10.8276 15.8793 10.4622 15.9625C9.46349 16.1924 8.53874 16.7034 7.62488 17.1491C6.32273 17.784 5.67166 18.1015 5.26306 17.8043C4.4814 17.2221 5.24544 15.4183 5.41666 14.5833" stroke="#A0A0A0" stroke-width="1.5" stroke-linecap="round"/>
</svg>
