<svg width="16" height="16" viewBox="0 0 16 16" fill="none" xmlns="http://www.w3.org/2000/svg">
<path d="M10.8094 3.32159L11.7439 2.38709C12.26 1.87097 13.0968 1.87097 13.613 2.38709C14.129 2.9032 14.129 3.73999 13.613 4.2561L12.6784 5.19061M10.8094 3.32159L7.32017 6.81087C6.62333 7.50773 6.27488 7.85613 6.03762 8.28073C5.80035 8.70533 5.56164 9.70793 5.33337 10.6667C6.2921 10.4384 7.29471 10.1997 7.71931 9.9624C8.14391 9.72513 8.49231 9.37673 9.18917 8.67987L12.6784 5.19061M10.8094 3.32159L12.6784 5.19061" stroke="#717171" stroke-linecap="round" stroke-linejoin="round"/>
<path d="M14 8C14 10.8284 14 12.2427 13.1213 13.1213C12.2427 14 10.8284 14 8 14C5.17157 14 3.75736 14 2.87868 13.1213C2 12.2427 2 10.8284 2 8C2 5.17157 2 3.75736 2.87868 2.87868C3.75736 2 5.17157 2 8 2" stroke="#717171" stroke-linecap="round"/>
</svg>
