<svg width="24" height="25" viewBox="0 0 24 25" fill="none" xmlns="http://www.w3.org/2000/svg">
<path d="M19 10.5C16.995 9.86815 14.5882 9.5 12 9.5C9.41179 9.5 7.00499 9.86815 5 10.5V14C7.00499 13.3682 9.41179 13 12 13C14.5882 13 16.995 13.3682 19 14V10.5Z" stroke="#A0A0A0" stroke-width="1.5" stroke-linejoin="round"/>
<path d="M19 13.5V15.5232C19 17.6542 17.9679 19.629 16.2812 20.7254L14.8812 21.6354C13.1078 22.7882 10.8922 22.7882 9.11882 21.6354L7.71883 20.7254C6.03208 19.629 5 17.6542 5 15.5232V13.5" stroke="#A0A0A0" stroke-width="1.5" stroke-linecap="round"/>
<path d="M19 10.5L20.1257 9.9071C21.3888 9.07875 22.0203 8.66457 21.9995 8.07281C21.9787 7.48105 21.32 7.12104 20.0025 6.40101L15.2753 3.81756C13.6681 2.93919 12.8645 2.5 12 2.5C11.1355 2.5 10.3319 2.93919 8.72468 3.81756L3.99753 6.40101C2.68004 7.12104 2.02129 7.48105 2.0005 8.07281C1.9797 8.66457 2.61125 9.07875 3.87434 9.9071L5 10.5" stroke="#A0A0A0" stroke-width="1.5" stroke-linecap="round"/>
</svg>
