<svg width="20" height="20" viewBox="0 0 20 20" fill="none" xmlns="http://www.w3.org/2000/svg">
<path d="M10.8334 5.83333C10.8334 7.67428 9.34094 9.16667 7.50002 9.16667C5.65907 9.16667 4.16669 7.67428 4.16669 5.83333C4.16669 3.99238 5.65907 2.5 7.50002 2.5C9.34094 2.5 10.8334 3.99238 10.8334 5.83333Z" stroke="#717171" stroke-width="1.5"/>
<path d="M12.5 9.16667C14.3409 9.16667 15.8333 7.67428 15.8333 5.83333C15.8333 3.99238 14.3409 2.5 12.5 2.5" stroke="#717171" stroke-width="1.5" stroke-linecap="round" stroke-linejoin="round"/>
<path d="M9.16669 11.6667H5.83335C3.53217 11.6667 1.66669 13.5322 1.66669 15.8333C1.66669 16.7538 2.41288 17.5 3.33335 17.5H11.6667C12.5872 17.5 13.3334 16.7538 13.3334 15.8333C13.3334 13.5322 11.4679 11.6667 9.16669 11.6667Z" stroke="#717171" stroke-width="1.5" stroke-linejoin="round"/>
<path d="M14.1667 11.6667C16.4679 11.6667 18.3334 13.5322 18.3334 15.8333C18.3334 16.7538 17.5872 17.5 16.6667 17.5H15.4167" stroke="#717171" stroke-width="1.5" stroke-linecap="round" stroke-linejoin="round"/>
</svg>
