<svg width="16" height="16" viewBox="0 0 16 16" fill="none" xmlns="http://www.w3.org/2000/svg">
<path d="M2.66683 10.3337C1.93045 10.3337 1.3335 9.73673 1.3335 9.00033C1.3335 8.26393 1.93045 7.66699 2.66683 7.66699" stroke="#717171" stroke-width="1.25" stroke-linecap="round" stroke-linejoin="round"/>
<path d="M13.3335 10.3337C14.0699 10.3337 14.6668 9.73673 14.6668 9.00033C14.6668 8.26393 14.0699 7.66699 13.3335 7.66699" stroke="#717171" stroke-width="1.25" stroke-linecap="round" stroke-linejoin="round"/>
<path d="M4.6665 4.66699V2.66699" stroke="#717171" stroke-width="1.25" stroke-linejoin="round"/>
<path d="M11.3335 4.66699V2.66699" stroke="#717171" stroke-width="1.25" stroke-linejoin="round"/>
<path d="M4.66667 2.66634C5.03486 2.66634 5.33333 2.36786 5.33333 1.99967C5.33333 1.63148 5.03486 1.33301 4.66667 1.33301C4.29848 1.33301 4 1.63148 4 1.99967C4 2.36786 4.29848 2.66634 4.66667 2.66634Z" stroke="#717171" stroke-width="1.25" stroke-linejoin="round"/>
<path d="M11.3332 2.66634C11.7014 2.66634 11.9998 2.36786 11.9998 1.99967C11.9998 1.63148 11.7014 1.33301 11.3332 1.33301C10.965 1.33301 10.6665 1.63148 10.6665 1.99967C10.6665 2.36786 10.965 2.66634 11.3332 2.66634Z" stroke="#717171" stroke-width="1.25" stroke-linejoin="round"/>
<path d="M9 4.66699H7C5.11438 4.66699 4.17157 4.66699 3.58579 5.27298C3 5.87897 3 6.85426 3 8.80493C3 10.7556 3 11.7309 3.58579 12.3369C4.17157 12.9429 5.11438 12.9429 7 12.9429H7.68353C8.21127 12.9429 8.39747 13.0519 8.76113 13.4479C9.16333 13.8859 9.78607 14.4703 10.3495 14.6064C11.1503 14.7999 11.2399 14.5323 11.0613 13.7691C11.0104 13.5517 10.8835 13.2041 11.0173 13.0015C11.0923 12.8881 11.2173 12.8602 11.4672 12.8044C11.8615 12.7163 12.1865 12.5724 12.4142 12.3369C13 11.7309 13 10.7556 13 8.80493C13 6.85426 13 5.87897 12.4142 5.27298C11.8284 4.66699 10.8856 4.66699 9 4.66699Z" stroke="#717171" stroke-width="1.25" stroke-linejoin="round"/>
<path d="M6.3335 10C6.71356 10.4048 7.31863 10.6667 8.00016 10.6667C8.6817 10.6667 9.28676 10.4048 9.66683 10" stroke="#717171" stroke-width="1.25" stroke-linecap="round" stroke-linejoin="round"/>
<path d="M6.00597 7.33301H6" stroke="#717171" stroke-width="1.66667" stroke-linecap="round" stroke-linejoin="round"/>
<path d="M10.006 7.33301H10" stroke="#717171" stroke-width="1.66667" stroke-linecap="round" stroke-linejoin="round"/>
</svg>
