<svg width="20" height="20" viewBox="0 0 20 20" fill="none" xmlns="http://www.w3.org/2000/svg">
<path d="M8.33331 15H11.6666" stroke="#A0A0A0" stroke-width="1.5" stroke-linecap="round" stroke-linejoin="round"/>
<path d="M1.95951 11.0112C1.66533 9.09682 1.51824 8.13968 1.88016 7.29114C2.24208 6.44259 3.04505 5.86201 4.65097 4.70087L5.85085 3.83332C7.8486 2.38888 8.84744 1.66666 10 1.66666C11.1526 1.66666 12.1514 2.38888 14.1492 3.83332L15.3491 4.70087C16.955 5.86201 17.7579 6.44259 18.1199 7.29114C18.4818 8.13968 18.3347 9.09682 18.0405 11.0112L17.7897 12.6437C17.3726 15.3574 17.1641 16.7143 16.1909 17.5238C15.2176 18.3333 13.7948 18.3333 10.949 18.3333H9.05102C6.2053 18.3333 4.78245 18.3333 3.80919 17.5238C2.83593 16.7143 2.62741 15.3574 2.21038 12.6437L1.95951 11.0112Z" stroke="#A0A0A0" stroke-width="1.5" stroke-linejoin="round"/>
</svg>
