<svg width="40" height="40" viewBox="0 0 40 40" fill="none" xmlns="http://www.w3.org/2000/svg">
<path d="M10 20C10 16.3109 10 14.4663 10.8138 13.1588C11.1149 12.675 11.4889 12.2543 11.9189 11.9155C13.0812 11 14.7208 11 18 11H22C25.2792 11 26.9188 11 28.0811 11.9155C28.5111 12.2543 28.8851 12.675 29.1862 13.1588C30 14.4663 30 16.3109 30 20C30 23.6891 30 25.5337 29.1862 26.8412C28.8851 27.325 28.5111 27.7457 28.0811 28.0845C26.9188 29 25.2792 29 22 29H18C14.7208 29 13.0812 29 11.9189 28.0845C11.4889 27.7457 11.1149 27.325 10.8138 26.8412C10 25.5337 10 23.6891 10 20Z" stroke="#717171" stroke-width="1.5"/>
<path d="M17.5 11V29" stroke="#717171" stroke-width="1.5" stroke-linejoin="round"/>
<path d="M13 15H14M13 18H14" stroke="#717171" stroke-width="1.5" stroke-linecap="round" stroke-linejoin="round"/>
</svg>
