<svg width="20" height="20" viewBox="0 0 20 20" fill="none" xmlns="http://www.w3.org/2000/svg">
<path d="M18.3334 9.63892C18.3334 14.0416 14.6019 17.6112 10 17.6112C9.45894 17.6119 8.91935 17.5618 8.38785 17.4621C8.0053 17.3902 7.814 17.3543 7.68046 17.3747C7.54691 17.3951 7.35767 17.4957 6.97918 17.697C5.90847 18.2664 4.65998 18.4675 3.45928 18.2442C3.91564 17.6828 4.22731 17.0093 4.36484 16.2873C4.44817 15.8457 4.24169 15.4167 3.93243 15.1026C2.5278 13.6763 1.66669 11.7543 1.66669 9.63892C1.66669 5.23631 5.39817 1.66667 10 1.66667C14.6019 1.66667 18.3334 5.23631 18.3334 9.63892Z" stroke="#717171" stroke-width="1.5" stroke-linejoin="round"/>
<path d="M9.99627 10H10.0038M13.3259 10H13.3334M6.66669 10H6.67416" stroke="#717171" stroke-width="2" stroke-linecap="round" stroke-linejoin="round"/>
</svg>
