<svg width="20" height="20" viewBox="0 0 20 20" fill="none" xmlns="http://www.w3.org/2000/svg">
<path d="M2.10825 12.308C1.93104 13.4697 2.72331 14.276 3.69336 14.6778C7.41232 16.2185 12.5876 16.2185 16.3066 14.6778C17.2766 14.276 18.0689 13.4697 17.8917 12.308C17.7828 11.5941 17.2443 10.9996 16.8453 10.4191C16.3227 9.64942 16.2708 8.80984 16.2707 7.91667C16.2707 4.46489 13.4632 1.66667 9.99998 1.66667C6.53676 1.66667 3.72926 4.46489 3.72926 7.91667C3.72917 8.80984 3.67725 9.64942 3.15466 10.4191C2.75568 10.9996 2.21716 11.5941 2.10825 12.308Z" stroke="#717171" stroke-width="1.5" stroke-linecap="round" stroke-linejoin="round"/>
<path d="M6.66669 15.8333C7.04876 17.271 8.39627 18.3333 10 18.3333C11.6038 18.3333 12.9513 17.271 13.3334 15.8333" stroke="#717171" stroke-width="1.5" stroke-linecap="round" stroke-linejoin="round"/>
</svg>
