<svg width="16" height="16" viewBox="0 0 16 16" fill="none" xmlns="http://www.w3.org/2000/svg">
<path d="M3.43891 7.66034C3.38993 8.59101 3.44624 9.58167 2.61475 10.2053C2.22776 10.4955 2 10.951 2 11.4348C2 12.1002 2.5212 12.6663 3.2 12.6663H12.8C13.4788 12.6663 14 12.1002 14 11.4348C14 10.951 13.7723 10.4955 13.3853 10.2053C12.5537 9.58167 12.6101 8.59101 12.5611 7.66034C12.4334 5.23449 10.4292 3.33301 8 3.33301C5.57078 3.33301 3.56659 5.23449 3.43891 7.66034Z" stroke="#717171" stroke-width="1.25" stroke-linecap="round" stroke-linejoin="round"/>
<path d="M7 2.08301C7 2.63529 7.44773 3.33301 8 3.33301C8.55227 3.33301 9 2.63529 9 2.08301C9 1.53072 8.55227 1.33301 8 1.33301C7.44773 1.33301 7 1.53072 7 2.08301Z" stroke="#717171" stroke-width="1.25"/>
<path d="M10 12.667C10 13.7716 9.1046 14.667 8 14.667C6.8954 14.667 6 13.7716 6 12.667" stroke="#717171" stroke-width="1.25" stroke-linecap="round" stroke-linejoin="round"/>
</svg>
