<svg width="16" height="16" viewBox="0 0 16 16" fill="none" xmlns="http://www.w3.org/2000/svg">
<path d="M4.33329 6H3.66663M6.99996 6H6.33329M4.33329 4H3.66663M6.99996 4H6.33329" stroke="white" stroke-linecap="round"/>
<path d="M12.3333 10H11.6666M12.3333 7.33334H11.6666" stroke="white" stroke-linecap="round"/>
<path d="M9.33337 5.33334V14.6667H12C13.2571 14.6667 13.8856 14.6667 14.2762 14.2761C14.6667 13.8856 14.6667 13.2571 14.6667 12V8C14.6667 6.74294 14.6667 6.11438 14.2762 5.72386C13.8856 5.33334 13.2571 5.33334 12 5.33334H9.33337ZM9.33337 5.33334C9.33337 3.44772 9.33337 2.50491 8.74757 1.91912C8.16177 1.33334 7.21897 1.33334 5.33337 1.33334C3.44775 1.33334 2.50495 1.33334 1.91916 1.91912C1.33337 2.50491 1.33337 3.44772 1.33337 5.33334V6.66667" stroke="white" stroke-linecap="round" stroke-linejoin="round"/>
<path d="M5.34994 9.303C5.34994 10.0389 4.753 10.6353 4.01664 10.6353C3.28029 10.6353 2.68335 10.0389 2.68335 9.303C2.68335 8.5672 3.28029 7.97073 4.01664 7.97073C4.753 7.97073 5.34994 8.5672 5.34994 9.303Z" stroke="white" stroke-linecap="round"/>
<path d="M1.37988 13.4734C2.08545 12.388 3.20591 11.9812 4.01661 11.982C4.82731 11.9829 5.91493 12.388 6.6205 13.4734C6.66611 13.5436 6.67866 13.63 6.63752 13.7029C6.47251 13.9953 5.96018 14.5755 5.59014 14.6149C5.16497 14.6601 4.05276 14.6664 4.01747 14.6666C3.98215 14.6664 2.8356 14.6601 2.41023 14.6149C2.04019 14.5755 1.52787 13.9953 1.36286 13.7029C1.32169 13.63 1.33426 13.5436 1.37988 13.4734Z" stroke="white" stroke-linecap="round"/>
</svg>
