<svg width="16" height="16" viewBox="0 0 16 16" fill="none" xmlns="http://www.w3.org/2000/svg">
<path d="M9.03062 2.52877L8.19529 3.60661C7.48109 4.52815 8.90209 5.64458 9.62635 4.71672L9.87595 4.39695C10.3378 3.80531 11.208 3.74501 11.7313 4.26839C12.2547 4.79175 12.1944 5.66193 11.6028 6.12373L11.283 6.37333C10.3551 7.09761 11.4716 8.51861 12.3931 7.80441L13.471 6.96907C14.9546 5.81921 15.0765 3.61485 13.7307 2.26904C12.3848 0.923228 10.1805 1.04504 9.03062 2.52877Z" stroke="white" stroke-width="1.25" stroke-linecap="round" stroke-linejoin="round"/>
<path d="M3.00016 14.6663C3.92064 14.6663 4.66683 13.9201 4.66683 12.9997C4.66683 12.0792 3.92064 11.333 3.00016 11.333C2.07969 11.333 1.3335 12.0792 1.3335 12.9997C1.3335 13.9201 2.07969 14.6663 3.00016 14.6663Z" stroke="white" stroke-width="1.25" stroke-linecap="round" stroke-linejoin="round"/>
<path d="M2 11.6065L4.66667 3.33301M4.39316 13.9997L11.3333 7.99967" stroke="white" stroke-width="1.25" stroke-linecap="round" stroke-linejoin="round"/>
</svg>
