<svg width="16" height="16" viewBox="0 0 16 16" fill="none" xmlns="http://www.w3.org/2000/svg">
<path d="M14.3332 8.00033C14.3332 11.4981 11.4976 14.3337 7.99984 14.3337C4.50206 14.3337 1.6665 11.4981 1.6665 8.00033C1.6665 4.50252 4.50206 1.66699 7.99984 1.66699C10.5969 1.66699 12.8289 3.23018 13.8062 5.46699M14.3332 3.66699L14.0165 5.78366L11.9998 5.33366" stroke="#717171" stroke-linecap="round" stroke-linejoin="round"/>
<path d="M6.6665 7.33333V6.33333C6.6665 5.59695 7.26344 5 7.99984 5C8.73624 5 9.33317 5.59695 9.33317 6.33333V7.33333M7.49984 11H8.49984C9.2817 11 9.67264 11 9.9419 10.7933C10.0112 10.7401 10.0733 10.6781 10.1265 10.6087C10.3332 10.3395 10.3332 9.94853 10.3332 9.16667C10.3332 8.3848 10.3332 7.99387 10.1265 7.7246C10.0733 7.65527 10.0112 7.5932 9.9419 7.54C9.67264 7.33333 9.2817 7.33333 8.49984 7.33333H7.49984C6.71797 7.33333 6.32705 7.33333 6.05774 7.54C5.98841 7.5932 5.92635 7.65527 5.87315 7.7246C5.6665 7.99387 5.6665 8.3848 5.6665 9.16667C5.6665 9.94853 5.6665 10.3395 5.87315 10.6087C5.92635 10.6781 5.98841 10.7401 6.05774 10.7933C6.32705 11 6.71797 11 7.49984 11Z" stroke="#717171" stroke-linejoin="round"/>
</svg>
