<svg width="16" height="16" viewBox="0 0 16 16" fill="none" xmlns="http://www.w3.org/2000/svg">
<path d="M1.6665 3.99967C1.6665 2.97271 1.6665 2.45923 1.89766 2.08203C2.027 1.87096 2.20446 1.6935 2.41552 1.56416C2.79273 1.33301 3.30621 1.33301 4.33317 1.33301C5.36013 1.33301 5.87361 1.33301 6.25082 1.56416C6.46188 1.6935 6.63934 1.87096 6.7687 2.08203C6.99984 2.45923 6.99984 2.97271 6.99984 3.99967C6.99984 5.02663 6.99984 5.54011 6.7687 5.91732C6.63934 6.12839 6.46188 6.30585 6.25082 6.43519C5.87361 6.66634 5.36013 6.66634 4.33317 6.66634C3.30621 6.66634 2.79273 6.66634 2.41552 6.43519C2.20446 6.30585 2.027 6.12839 1.89766 5.91732C1.6665 5.54011 1.6665 5.02663 1.6665 3.99967Z" stroke="#717171" stroke-width="1.25"/>
<path d="M2.52127 9.85478C3.21918 9.15684 3.56813 8.80791 3.98156 8.70864C4.2129 8.65311 4.4541 8.65311 4.68543 8.70864C5.09886 8.80791 5.44782 9.15684 6.14572 9.85478C6.84363 10.5526 7.19256 10.9016 7.29183 11.315C7.34736 11.5464 7.34736 11.7876 7.29183 12.0189C7.19256 12.4324 6.84363 12.7813 6.14572 13.4792C5.44782 14.1771 5.09886 14.526 4.68544 14.6253C4.4541 14.6808 4.2129 14.6808 3.98156 14.6253C3.56813 14.526 3.21918 14.1771 2.52127 13.4792C1.82336 12.7813 1.47441 12.4324 1.37515 12.0189C1.31961 11.7876 1.31961 11.5464 1.37515 11.315C1.47441 10.9016 1.82336 10.5526 2.52127 9.85478Z" stroke="#717171" stroke-width="1.25"/>
<path d="M9.3335 11.9997C9.3335 10.9727 9.3335 10.4592 9.56463 10.082C9.69396 9.87094 9.87143 9.69347 10.0825 9.56414C10.4597 9.33301 10.9732 9.33301 12.0002 9.33301C13.0271 9.33301 13.5406 9.33301 13.9178 9.56414C14.1289 9.69347 14.3064 9.87094 14.4357 10.082C14.6668 10.4592 14.6668 10.9727 14.6668 11.9997C14.6668 13.0266 14.6668 13.5401 14.4357 13.9173C14.3064 14.1284 14.1289 14.3059 13.9178 14.4352C13.5406 14.6663 13.0271 14.6663 12.0002 14.6663C10.9732 14.6663 10.4597 14.6663 10.0825 14.4352C9.87143 14.3059 9.69396 14.1284 9.56463 13.9173C9.3335 13.5401 9.3335 13.0266 9.3335 11.9997Z" stroke="#717171" stroke-width="1.25"/>
<path d="M12.0002 1.33301V6.66634M14.6668 3.99967H9.3335" stroke="#717171" stroke-width="1.25" stroke-linecap="round" stroke-linejoin="round"/>
</svg>
