<svg width="20" height="20" viewBox="0 0 20 20" fill="none" xmlns="http://www.w3.org/2000/svg">
<path d="M17.7646 5.95116L17.3532 5.23732C17.0421 4.69746 16.8866 4.42754 16.622 4.3199C16.3573 4.21226 16.058 4.2972 15.4594 4.46706L14.4426 4.75348C14.0604 4.84161 13.6594 4.79161 13.3105 4.61232L13.0297 4.45035C12.7305 4.25869 12.5003 3.97611 12.3729 3.64395L12.0946 2.8128C11.9116 2.26278 11.8201 1.98777 11.6023 1.83047C11.3846 1.67317 11.0952 1.67317 10.5166 1.67317H9.58756C9.00898 1.67317 8.71964 1.67317 8.50181 1.83047C8.28402 1.98777 8.19253 2.26278 8.00955 2.8128L7.73125 3.64395C7.60385 3.97611 7.37369 4.25869 7.07445 4.45035L6.79372 4.61232C6.44476 4.79161 6.0438 4.84161 5.66163 4.75348L4.64477 4.46706C4.04615 4.2972 3.74685 4.21226 3.4822 4.3199C3.21755 4.42754 3.06202 4.69746 2.75094 5.23732L2.33962 5.95116C2.04803 6.4572 1.90223 6.71022 1.93053 6.97957C1.95882 7.24892 2.154 7.46598 2.54436 7.9001L3.40356 8.86066C3.61356 9.1265 3.76265 9.58983 3.76265 10.0064C3.76265 10.4232 3.61361 10.8863 3.40359 11.1522L2.54436 12.1128C2.154 12.547 1.95883 12.764 1.93053 13.0334C1.90223 13.3027 2.04803 13.5557 2.33962 14.0617L2.75093 14.7756C3.062 15.3154 3.21755 15.5854 3.4822 15.693C3.74685 15.8007 4.04616 15.7157 4.64479 15.5458L5.6616 15.2594C6.04384 15.1712 6.44487 15.2213 6.79387 15.4007L7.07456 15.5627C7.37374 15.7543 7.60385 16.0368 7.73123 16.369L8.00955 17.2002C8.19253 17.7502 8.28402 18.0252 8.50181 18.1826C8.71964 18.3398 9.00898 18.3398 9.58756 18.3398H10.5166C11.0952 18.3398 11.3846 18.3398 11.6023 18.1826C11.8201 18.0252 11.9116 17.7502 12.0946 17.2002L12.373 16.369C12.5003 16.0368 12.7304 15.7543 13.0296 15.5627L13.3103 15.4007C13.6593 15.2213 14.0603 15.1712 14.4426 15.2594L15.4594 15.5458C16.058 15.7157 16.3573 15.8007 16.622 15.693C16.8866 15.5854 17.0421 15.3154 17.3532 14.7756L17.7646 14.0617C18.0561 13.5557 18.2019 13.3027 18.1736 13.0334C18.1453 12.764 17.9501 12.547 17.5598 12.1128L16.7006 11.1522C16.4906 10.8863 16.3415 10.4232 16.3415 10.0064C16.3415 9.58983 16.4906 9.1265 16.7006 8.86066L17.5598 7.9001C17.9501 7.46598 18.1453 7.24892 18.1736 6.97957C18.2019 6.71022 18.0561 6.4572 17.7646 5.95116Z" stroke="#717171" stroke-width="1.5" stroke-linecap="round"/>
<path d="M12.9329 10C12.9329 11.6108 11.6271 12.9167 10.0163 12.9167C8.40542 12.9167 7.09961 11.6108 7.09961 10C7.09961 8.38917 8.40542 7.08334 10.0163 7.08334C11.6271 7.08334 12.9329 8.38917 12.9329 10Z" stroke="#717171" stroke-width="1.5"/>
</svg>
