<svg width="20" height="20" viewBox="0 0 20 20" fill="none" xmlns="http://www.w3.org/2000/svg">
<path d="M17.7647 5.95083L17.3534 5.237C17.0423 4.69714 16.8868 4.42722 16.6222 4.31958C16.3575 4.21194 16.0582 4.29688 15.4596 4.46674L14.4427 4.75316C14.0606 4.84129 13.6596 4.79129 13.3107 4.612L13.0299 4.45003C12.7307 4.25837 12.5005 3.97578 12.3731 3.64363L12.0948 2.81248C11.9118 2.26246 11.8203 1.98745 11.6025 1.83015C11.3847 1.67285 11.0954 1.67285 10.5167 1.67285H9.58774C9.00916 1.67285 8.71983 1.67285 8.50199 1.83015C8.2842 1.98745 8.19271 2.26246 8.00974 2.81248L7.73144 3.64363C7.60404 3.97578 7.37387 4.25837 7.07464 4.45003L6.7939 4.612C6.44494 4.79129 6.04399 4.84129 5.66181 4.75316L4.64495 4.46674C4.04634 4.29688 3.74704 4.21194 3.48239 4.31958C3.21774 4.42722 3.0622 4.69714 2.75112 5.237L2.3398 5.95083C2.04821 6.45688 1.90241 6.7099 1.93071 6.97925C1.959 7.2486 2.15419 7.46566 2.54454 7.89978L3.40374 8.86034C3.61374 9.12618 3.76284 9.58951 3.76284 10.0061C3.76284 10.4228 3.61379 10.886 3.40377 11.1519L2.54454 12.1125C2.15419 12.5467 1.95901 12.7637 1.93071 13.0331C1.90241 13.3024 2.04821 13.5554 2.3398 14.0614L2.75111 14.7753C3.06219 15.3151 3.21774 15.5851 3.48239 15.6927C3.74704 15.8003 4.04634 15.7154 4.64497 15.5455L5.66178 15.2591C6.04402 15.1709 6.44505 15.221 6.79405 15.4003L7.07474 15.5623C7.37392 15.754 7.60403 16.0365 7.73141 16.3687L8.00974 17.1999C8.19271 17.7499 8.2842 18.0249 8.50199 18.1823C8.71983 18.3395 9.00916 18.3395 9.58774 18.3395H10.5167C11.0954 18.3395 11.3847 18.3395 11.6025 18.1823C11.8203 18.0249 11.9118 17.7499 12.0948 17.1999L12.3732 16.3687C12.5005 16.0365 12.7306 15.754 13.0298 15.5623L13.3105 15.4003C13.6595 15.221 14.0605 15.1709 14.4427 15.2591L15.4596 15.5455C16.0582 15.7154 16.3575 15.8003 16.6222 15.6927C16.8868 15.5851 17.0423 15.3151 17.3534 14.7753L17.7647 14.0614C18.0563 13.5554 18.2021 13.3024 18.1738 13.0331C18.1455 12.7637 17.9503 12.5467 17.56 12.1125L16.7007 11.1519C16.4907 10.886 16.3417 10.4228 16.3417 10.0061C16.3417 9.58951 16.4908 9.12618 16.7007 8.86034L17.56 7.89978C17.9503 7.46566 18.1455 7.2486 18.1738 6.97925C18.2021 6.7099 18.0563 6.45688 17.7647 5.95083Z" stroke="#A0A0A0" stroke-width="1.5" stroke-linecap="round"/>
<path d="M12.9329 9.99967C12.9329 11.6105 11.6271 12.9163 10.0163 12.9163C8.40542 12.9163 7.09961 11.6105 7.09961 9.99967C7.09961 8.38884 8.40542 7.08301 10.0163 7.08301C11.6271 7.08301 12.9329 8.38884 12.9329 9.99967Z" stroke="#A0A0A0" stroke-width="1.5"/>
</svg>
