<svg width="20" height="20" viewBox="0 0 20 20" fill="none" xmlns="http://www.w3.org/2000/svg">
<path fill-rule="evenodd" clip-rule="evenodd" d="M4.1665 5C4.1665 3.82149 4.1665 3.23223 4.53262 2.86612C4.89874 2.5 5.488 2.5 6.6665 2.5H10.4823C12.517 2.5 14.1665 4.17893 14.1665 6.25C14.1665 8.32107 12.517 10 10.4823 10H4.1665V5Z" stroke="#3E3E3E" stroke-width="1.5" stroke-linecap="round" stroke-linejoin="round"/>
<path d="M10.357 10H11.3888C13.3831 10 14.9998 11.6789 14.9998 13.75C14.9998 15.8211 13.3831 17.5 11.3888 17.5H6.6665C5.488 17.5 4.89874 17.5 4.53262 17.1339C4.1665 16.7677 4.1665 16.1785 4.1665 15V10" stroke="#3E3E3E" stroke-width="1.5" stroke-linecap="round" stroke-linejoin="round"/>
</svg>
