<svg width="116" height="20" viewBox="0 0 116 20" fill="none" xmlns="http://www.w3.org/2000/svg">
<path d="M17 14.9788C17.1072 16.0691 17.3496 16.803 17.8974 17.3507C18.88 18.3333 20.4613 18.3333 23.6241 18.3333C26.7868 18.3333 28.3682 18.3333 29.3507 17.3507C30.3333 16.3682 30.3333 14.7868 30.3333 11.6241C30.3333 8.46133 30.3333 6.87997 29.3507 5.89742C28.803 5.34963 28.0691 5.10725 26.9788 5" stroke="#A0A0A0" stroke-width="1.5"/>
<path d="M13.6667 8.33332C13.6667 5.19062 13.6667 3.61928 14.643 2.64296C15.6193 1.66666 17.1906 1.66666 20.3333 1.66666C23.476 1.66666 25.0474 1.66666 26.0237 2.64296C27 3.61928 27 5.19062 27 8.33332C27 11.476 27 13.0474 26.0237 14.0237C25.0474 15 23.476 15 20.3333 15C17.1906 15 15.6193 15 14.643 14.0237C13.6667 13.0474 13.6667 11.476 13.6667 8.33332Z" stroke="#A0A0A0" stroke-width="1.5"/>
<path d="M16.1667 15C19.0172 11.0406 22.2206 5.78959 27 9.72784" stroke="#A0A0A0" stroke-width="1.5"/>
<path fill-rule="evenodd" clip-rule="evenodd" d="M52.1667 5C52.1667 3.82149 52.1667 3.23223 52.5328 2.86612C52.8989 2.5 53.4882 2.5 54.6667 2.5H58.4824C60.5172 2.5 62.1667 4.17893 62.1667 6.25C62.1667 8.32107 60.5172 10 58.4824 10H52.1667V5Z" stroke="#A0A0A0" stroke-width="1.5" stroke-linecap="round" stroke-linejoin="round"/>
<path d="M58.3572 10H59.3889C61.3832 10 63 11.6789 63 13.75C63 15.8211 61.3832 17.5 59.3889 17.5H54.6667C53.4882 17.5 52.8989 17.5 52.5328 17.1339C52.1667 16.7677 52.1667 16.1785 52.1667 15V10" stroke="#A0A0A0" stroke-width="1.5" stroke-linecap="round" stroke-linejoin="round"/>
<path d="M94 3.33334H99.8333" stroke="#A0A0A0" stroke-width="1.5" stroke-linecap="round"/>
<path d="M90.6667 16.6667L97.3333 3.33334" stroke="#A0A0A0" stroke-width="1.5" stroke-linecap="round"/>
<path d="M88.1667 16.6667H94" stroke="#A0A0A0" stroke-width="1.5" stroke-linecap="round"/>
</svg>
